<svg xmlns="http://www.w3.org/2000/svg" viewBox="0 0 216.5 56.71"><defs><style>.cls-1,.cls-3{fill:none;stroke-miterlimit:10;}.cls-1{stroke:#040000;}.cls-2{fill:#d14a49;}.cls-3{stroke:#fff;}</style></defs><title>btn</title><g id="レイヤー_2" data-name="レイヤー 2"><g id="レイヤー_1-2" data-name="レイヤー 1"><rect class="cls-1" x="7.28" y="6.2" width="208.72" height="50.01"/><rect class="cls-1" x="0.5" y="0.5" width="211.19" height="50.01"/><path class="cls-2" d="M33,22.65V20c1.16,0,1.72.19,1.72.42s-.23.29-.69.46v1.79H38.7l.89-1.18a14.79,14.79,0,0,1,1.2,1.25l-.19.37H28.27v3.2c0,4.09-.81,7.2-2.41,9.27l-.41-.29c1.18-2.1,1.78-5.1,1.78-9V22.17c.44.17.81.33,1.12.48Zm.42,7.07V23.58c1.16.06,1.76.21,1.76.42s-.25.31-.73.48v1.91h3.67L39,25.26a8.73,8.73,0,0,1,1.16,1.24l-.19.33H34.47v2.9h3.17l.64-.73c.71.54,1.08.91,1.08,1.06a.28.28,0,0,1-.15.19l-.39.27v5h-1V34.29H30.34v1.25h-1V29.23a12.27,12.27,0,0,1,1.24.48Zm-3.11.44v3.71h7.43V30.16Z"/><path class="cls-2" d="M51.28,22.53c.6.54.89,1,.89,1.39s-.17.58-.54.58c-.17,0-.37-.15-.56-.52a8.79,8.79,0,0,0-2.35-2.62,13.15,13.15,0,0,1-3.76,5.06l-.31-.31a15.66,15.66,0,0,0,3.46-6.16c1,.25,1.47.48,1.47.7s-.19.23-.66.33A9.73,9.73,0,0,1,51.28,22.53ZM49,26.39v2.2h1.43l.75-1a5.5,5.5,0,0,1,1,1.1L52,29H45.12l-.17-.42H48v-2.2H45.89l-.17-.44H48V23.52c1.06,0,1.58.13,1.58.37s-.21.27-.62.42v1.64h.81l.66-.95a10.94,10.94,0,0,1,1,1.08l-.17.31Zm.95,4.19.6-.71c.66.5,1,.83,1,1a.23.23,0,0,1-.12.17l-.39.23v4h-1v-.91H47v1.16H46V30c.39.17.77.37,1.14.56ZM47,31v2.86h3.11V31Zm8.78-5.67v-2H52.32l-.19-.42h3.61V19.95c1.08,0,1.62.17,1.62.39s-.21.29-.64.41v2.14h2.49l.66-.89a7.48,7.48,0,0,1,.91,1l-.17.33H56.72v2h2l.6-.73q1,.81,1,1a.27.27,0,0,1-.12.17l-.42.27v8c0,.85-.46,1.27-1.39,1.25a.81.81,0,0,0-.39-.75,3.76,3.76,0,0,0-.79-.23v-.44a7,7,0,0,0,1.1.1.44.44,0,0,0,.5-.5V31.1H56.72v4h-1v-4H53.67v4.44h-1V24.85c.17.06.44.17.83.35a2.08,2.08,0,0,1,.37.16Zm0,.44H53.67v2.12h2.07Zm0,2.55H53.67v2.34h2.07Zm1-2.55v2.12h2.14V25.8Zm0,2.55v2.34h2.14V28.34Zm1-8q1.68.67,1.68,1.45c0,.39-.19.58-.62.58-.27,0-.44-.15-.5-.48a1.75,1.75,0,0,0-.79-1.22Z"/><path class="cls-2" d="M69,23.48l.85-1a9.88,9.88,0,0,1,1,1.14l-.21.35H64.4l-.14-.44Zm-.58,2.18.81-1a14.31,14.31,0,0,1,1,1.14l-.19.29H65.27l-.15-.42Zm0,2.16.81-1a6.61,6.61,0,0,1,1,1.12l-.21.33H65.27l-.15-.44ZM68.53,30l.71-.83c.71.66,1.08,1,1.08,1.2s-.06.13-.15.19l-.48.29v4.65h-1V34.42H66.18v1.12h-1V29.48c.37.15.75.37,1.14.56Zm-.25-8.74.83-1a11.32,11.32,0,0,1,1.06,1.14l-.19.31H65.54l-.15-.42Zm-2.1,9.19V34h2.55V30.49Zm8.38-6.43H71.37l-.17-.44h4.42a18.58,18.58,0,0,0,1.31-3.71c1,.37,1.58.67,1.58.93s-.27.27-.77.31a17.14,17.14,0,0,1-1.56,2.47H77.8l.77-1a6.85,6.85,0,0,1,1,1l.12.15-.19.33H75.58v2.86h1.66l.81-1a14.72,14.72,0,0,1,1,1.1l-.19.37H75.58v3h2.51l.83-1.14a7.22,7.22,0,0,1,1,1.2l-.17.37H75.58v4.73h-1V30.81H70.93l-.19-.42h3.82v-3h-3l-.15-.44h3.15Zm-2.32-4c1.35.85,2,1.74,2,2.66,0,.46-.21.7-.62.7s-.52-.23-.58-.7A4.38,4.38,0,0,0,72,20.31Z"/><path class="cls-2" d="M83.45,34.17a15.41,15.41,0,0,0,.95-4.83Q86,29.69,86,30c0,.1-.19.19-.56.29a12.08,12.08,0,0,1-1.58,4Zm2-7c0-.08.13-.17.23-.31a35.57,35.57,0,0,0,3.11-5c.87.41,1.33.71,1.33.95s-.25.25-.71.25a46.7,46.7,0,0,1-3.4,4.05c.6,0,1.62-.1,3-.25a7,7,0,0,0-.95-1.37l.25-.25c1.47.93,2.18,1.87,2.18,2.84,0,.42-.19.68-.56.68s-.48-.25-.54-.68a6.41,6.41,0,0,0-.19-.77c-.56.12-1.12.23-1.68.33l-.1,0v7.84h-1V27.88l-2.1.29c-.14.35-.25.54-.35.54s-.39-.48-.6-1.45c.66,0,1.27,0,1.83-.06Zm1.31-7.41c1,.37,1.49.64,1.49.85s-.21.21-.66.25a16.9,16.9,0,0,1-1.85,2.37,2,2,0,0,1,.89,1.41.56.56,0,0,1-.62.64c-.21,0-.35-.12-.44-.37a5.28,5.28,0,0,0-1.83-2.43l.19-.29a6.52,6.52,0,0,1,1.47.75A19,19,0,0,0,86.81,19.77ZM88.55,29a4.67,4.67,0,0,1,1.72,3.24c0,.54-.21.79-.6.79s-.46-.21-.48-.68a6.8,6.8,0,0,0-.95-3.13Zm8.59-7.32.71-.85c.69.56,1,.95,1,1.12s-.06.15-.17.23l-.44.25V35.33h-1v-1.6H92v1.6H91V21a8,8,0,0,1,1.2.62ZM92,22.07v5.19h2.08V22.07Zm2.08,5.64H92v5.6h2.08Zm3.17-.44V22.07H95.09v5.19Zm0,6v-5.6H95.09v5.6Z"/><path class="cls-2" d="M116.07,26.7a4.55,4.55,0,0,1-1.43,1.08c-.56.29-1.51.6-2.24.91l-.62.27c0,.21.06.44.08.67a3,3,0,0,1-.23,1.68,1,1,0,0,1-.79.64c-.41,0-.56-.27-.44-.66a7.55,7.55,0,0,0,.29-1.78V29.4a8.07,8.07,0,0,0-.91.42,4.19,4.19,0,0,0-1.54,1.25A1.56,1.56,0,0,0,108,32.8a2.44,2.44,0,0,0,1.89.85,13.11,13.11,0,0,0,1.81-.19,11.19,11.19,0,0,1,1.29-.25,1.51,1.51,0,0,1,1.18.31c.31.23.31.56,0,.7a3,3,0,0,1-1,.21,20,20,0,0,1-2.78.17,5.63,5.63,0,0,1-2.59-.71,1.8,1.8,0,0,1-.83-1.74,2.36,2.36,0,0,1,.83-1.68,8.41,8.41,0,0,1,1.81-1.29c.33-.17.69-.37,1.06-.54a1.32,1.32,0,0,0-.25-.77,1.81,1.81,0,0,0-1.24-.7,2.17,2.17,0,0,0-1.24.19,2,2,0,0,0-.35.19c-.25.33-.5.62-.73.95a2,2,0,0,1-1.41,1c-.42,0-.46-.27-.46-.62a1.06,1.06,0,0,1,.41-.85,9.26,9.26,0,0,0,1-.56,8,8,0,0,0,2-2.47,7.77,7.77,0,0,0,.6-1.24l-.46.06a2.7,2.7,0,0,1-1.6-.25,1,1,0,0,1-.37-1.1c.23-.31.56-.1,1,.06a2.84,2.84,0,0,0,1.52,0l.29-.06a.89.89,0,0,0-.25-.93.55.55,0,0,1-.12-.69.67.67,0,0,1,.73,0,.68.68,0,0,1,.27.25c.27,0,.6.12.71.14a1.94,1.94,0,0,1,.71.23c.17.13.08.31-.08.62a3.2,3.2,0,0,1-1,1.12,1.47,1.47,0,0,1-.35.17,5.69,5.69,0,0,1-.46,1.1,20.6,20.6,0,0,1-1.18,2,2.48,2.48,0,0,1-.19.29l.44-.17a2.17,2.17,0,0,1,1.31-.12,1.5,1.5,0,0,1,1,.58,2,2,0,0,1,.25-.31,5.21,5.21,0,0,1,2.07-1.74,2.79,2.79,0,0,1,2.64,0A1.13,1.13,0,0,1,116.07,26.7Zm-5.81-4.52.25-.13c.29-.16.39-.35.33-.41s-.19-.14-.46-.17l-.21,0a1.34,1.34,0,0,1,.1.48A.64.64,0,0,1,110.26,22.19Zm5,3.36c-.12-.21-.52-.39-1.2-.23a3.48,3.48,0,0,0-1.62.93,4.35,4.35,0,0,0-1,1.6c.06.12.12.25.15.35.17-.06.33-.15.5-.23a27.72,27.72,0,0,0,2.53-1.22C115.4,26.32,115.4,25.78,115.26,25.54Z"/><path class="cls-2" d="M133.52,21.2l.69-.83c.73.58,1.12,1,1.12,1.14s-.06.14-.15.19l-.48.29v8.49h-1v-1h-1.93v4.05a.48.48,0,0,0,.35.54,8.42,8.42,0,0,0,1.89.13c1,0,1.66-.17,1.85-.5a7,7,0,0,0,.44-2.49l.48.19a11.41,11.41,0,0,0,.12,2.16.59.59,0,0,0,.66.44.89.89,0,0,1-.73.95,13.54,13.54,0,0,1-2.74.17,7.54,7.54,0,0,1-2.91-.31,1.29,1.29,0,0,1-.42-1.14V29.46h-1.79a6,6,0,0,1-2,4.34,8.76,8.76,0,0,1-4.42,1.7l-.23-.44c3.46-.7,5.31-2.59,5.58-5.6h-1.83v1.12h-1V20.64c.31.12.71.31,1.22.56Zm-7.45.44v2.06h7.62V21.65Zm7.62,2.49h-7.62V26.3h7.62Zm0,2.61h-7.62V29h7.62Z"/><path class="cls-2" d="M154.06,32.42a4.92,4.92,0,0,1-2.57,1.52,6.66,6.66,0,0,1-3.09,0c-1.18-.25-1.64-.66-1.64-1.24s.73-1,1.37-1.16a2.42,2.42,0,0,1,2,.37,1,1,0,0,1,.25,1.33,4.77,4.77,0,0,0,2.41-.89A3,3,0,0,0,153.9,30a2.84,2.84,0,0,0-1.72-2.45,4.78,4.78,0,0,0-3.44-.12,4.86,4.86,0,0,0-2.57,1.76A7.75,7.75,0,0,0,145,31.35a1.4,1.4,0,0,1-.58.91.52.52,0,0,1-.64-.1,1.07,1.07,0,0,1-.21-.85,4.68,4.68,0,0,1,.85-1.31c.37-.46.87-1.18,1.52-1.89s1.7-2,2.12-2.47,1.74-2.1,1.95-2.39.31-.48.21-.56-.42,0-.62.15-1.16.7-1.7,1a3,3,0,0,1-1.45.42,1.48,1.48,0,0,1-1-.42.68.68,0,0,1-.21-.62.31.31,0,0,1,.42-.15,2.84,2.84,0,0,0,.66.12,2.19,2.19,0,0,0,1.08-.27c.58-.23,1.35-.6,2-.95a4.22,4.22,0,0,1,1.43-.62,1.35,1.35,0,0,1,1,.5c.25.27.27.44.23.62s-.14.27-.41.44a9.17,9.17,0,0,0-1.37,1.18c-.52.54-1.16,1.33-1.62,1.83,0,0-.46.5-1.37,1.45a4.1,4.1,0,0,1,1.06-.54,5.58,5.58,0,0,1,2.53-.33,5.08,5.08,0,0,1,2.55.93,3.21,3.21,0,0,1,1.41,2.41A3.13,3.13,0,0,1,154.06,32.42Zm-5.56-.31c-.62,0-1,.39-.73.77a2,2,0,0,0,1.45.42C150,32.63,149.29,32.11,148.5,32.11Z"/><circle class="cls-2" cx="186.74" cy="27.44" r="11.5"/><polyline class="cls-3" points="184.69 21.98 191.51 27.23 185.31 32.51"/></g></g></svg>